<svg version="1" xmlns="http://www.w3.org/2000/svg" width="1333.333" height="1333.333" viewBox="0 0 1000.000000 1000.000000">
  <path
    d="M411 7.1c-4.7 1.4-9.9 5.5-11.2 8.7-3.5 8.6.3 17.6 11.5 27.5 13 11.4 15.7 14.2 16.2 16.5.6 3.4-2.4 4.8-20 8.7-38.9 8.7-71.4 20.1-105 36.8-71.1 35.3-133.8 92.1-176.7 160.2-21.9 34.8-38.9 73-51.9 117-4.7 16-10.6 47.3-12.9 68.5-.5 5.2-1.2 11.5-1.5 14-1 8.8-1.4 53.7-.5 64 2.5 30.3 5 47.2 10.1 69.2 1.7 7.3 3.5 14.9 3.9 16.8 1.8 8.6 11.8 38 18.3 54 16.5 40.4 39.3 78.4 67.1 112 15.6 18.9 42.5 45.7 62.8 62.7 37.6 31.3 90.3 60.3 139.3 76.4 5.5 1.8 10.5 3.4 11 3.5.6.1 5.3 1.4 10.5 2.9 14.7 4 19.9 5.3 28.5 7 9.2 1.9 15.1 4.1 15.9 6.1 1 2.7-1.7 6-12.8 15.4-12.8 11-17.6 17.8-17.6 24.6 0 7.9 3 12.1 10.8 15.5 7.9 3.5 23.7 2 32.7-3 1.6-.9 7.9-5.2 14-9.6 30.7-22.4 40-27.9 46.9-27.8 2.3.1 6 .8 8.1 1.7 3.5 1.5 21.2 13 27.5 17.8 11.8 9.2 25.3 18.1 29.9 20 12.5 4.8 28.4 3.2 35.1-3.7 3.3-3.4 3.5-4.1 3.5-9.9 0-9-3.9-14.5-19.6-27.6-15.8-13.2-15.2-14.8 8.1-20.2 20.7-4.9 23.1-5.5 32.5-8.2 15.6-4.7 24.2-7.7 46.5-16.6 3-1.2 12.3-5.4 20.5-9.4 45.6-21.9 86.8-51.7 122.5-88.3 15.6-16 16-16.5 26.6-29.3 21.2-25.5 38.6-52.4 54.3-83.8 30.4-60.8 45.8-126.8 45.8-196.2.1-110-39.4-213.5-113.1-295.9-6.2-6.9-28.3-28.8-35.5-35.1-4-3.6-7.9-7-8.5-7.5-.6-.6-4.5-3.7-8.6-7-41.8-33.4-88.3-58.5-138.5-74.8-9.3-3-18.3-5.8-20-6.2-1.6-.5-3.4-1-4-1.1-1.9-.6-13-3.2-19-4.5-10.1-2.1-19.3-5-20.6-6.5-1.9-2.3.1-5.4 7.2-11.5C597.6 36.8 602 30.7 602 22.3c0-6.7-3.3-11.3-10.1-14.3-4.6-1.9-6.5-2.2-14.8-1.8-8.2.4-10.5.9-16.1 3.7-3.6 1.7-9.2 5.1-12.5 7.4-3.3 2.3-12.2 8.6-19.7 14-7.6 5.4-16.1 10.9-19 12.2-12 5.6-16 3.8-56.8-25.6-11.9-8.5-18.8-11.2-29.5-11.6-4.9-.1-10.6.2-12.5.8zM600.5 17c.3.6-.1.7-.9.4-1.8-.7-2.1-1.4-.7-1.4.6 0 1.3.4 1.6 1zm-160.7 7.7c20.3 16 56.9 40.3 60.5 40.3 3.5 0 41.5-25.2 60.2-39.9l9-7.1H599.2l-8.8 7.5c-17.2 14.6-57.1 43.8-62.7 45.8-2.6.9.5 1.6 15.5 3.1 147.3 15.1 275 103.4 340.8 235.9 58.2 116.8 59.4 255.7 3.3 374.7-35.2 74.7-97.1 142.2-170.1 185.3-53.7 31.9-119.6 52.8-179.9 57.3-5.1.4-9.3 1-9.3 1.3 0 .3 2.1 1.9 4.8 3.5 15.5 9.7 44.9 31.6 60.6 45.4 3.2 2.8 6.3 4.9 6.9 4.5.6-.3.7-.1.3.5-.5.8-5.3 1.2-15.1 1.2h-14.4l-7.9-6.4c-14.7-11.8-49.2-35.3-60.9-41.5-2-1-3.5-.4-13 5.5-16.1 10-35.4 23.2-48.3 33.3l-11.5 9h-29l4.5-4.1c12.8-11.7 43.3-34.7 59.2-44.8 4.8-3 8.7-5.8 8.8-6.1 0-.3-4.4-.9-9.7-1.3-40.3-2.8-89.4-14.8-128.7-31.3-54.4-22.9-99.5-53.9-142.1-97.4C119 723.7 77 626.7 72.1 520.5 68.6 447 83.6 375.4 116 310.3c45.6-91.8 121.7-163.6 216.5-204.3 36.6-15.8 81.8-27.3 123.7-31.5 8.4-.9 15.9-1.7 16.7-1.8.8-.1-4-3.7-10.5-8.1-15-9.9-39.2-28.1-50.7-38-4.9-4.2-9.3-7.4-9.7-7.1-.5.3-1.1.1-1.4-.4-.4-.5 5.7-1 14.9-1l15.6-.2 8.7 6.8z"/>
  <path
    d="M450 85.6c-182.7 22-331.3 163.6-362 344.8-4.8 28.4-5.5 37.7-5.4 71.1.1 39.8 2.8 63.5 11.4 98.6 42.3 171.4 187.6 298 363.2 316.3 12 1.3 15 1.3 13.7.2-.2-.1-5.3-3.6-11.4-7.6-27.1-18-51.1-37.5-73-59.5-36.4-36.4-57.4-70.5-66.3-108-2.3-9.7-2.6-13.1-2.7-29.5 0-15.8.3-20 2.3-28.9 8.5-37.7 29.4-72.2 66.2-109.1 17.7-17.8 28.7-27.3 50.1-43.5 14.1-10.6 37.4-26.4 42.2-28.6 1.5-.7 2.7-1.5 2.7-1.8-.1-.3-4-3-8.8-5.9-12.5-7.6-32.8-22-46.7-33-60.4-48-95.6-96.5-106.2-146.2-2.5-12-2.5-42 0-53.8 6.1-27.9 20.4-56.1 42.7-84.2 9.4-11.9 37.1-39.9 50.5-51.2 12.4-10.3 31.9-25 44.8-33.7 5.9-3.9 10.7-7.4 10.7-7.6 0-.8-5.4-.4-18 1.1zM533.1 84.7c0 .5 4.1 3.5 9.2 6.7 23.8 15.5 51.2 38 72.2 59 37 37.1 58.4 72.5 66.7 110.3 3.1 14.2 3.1 40.5 0 54.9-7.5 34.5-25.5 66.3-57.6 101.4-22.1 24.3-59.6 54.9-93.1 76-11.5 7.2-11.4 7.1-9.8 7.7 2.6.9 31.4 20.4 42.9 29 66.8 50 106.3 102 117.6 154.7 2.9 13.5 3.1 38.8.4 52.1-10.7 53.7-50.9 106.8-119.6 157.9-7.5 5.6-17.7 12.8-22.8 16.1-9.2 6-11.1 7.9-6.9 7.1 1.2-.3 5.8-.8 10.2-1.1 24.5-2 62.5-10.2 89.5-19.3 64-21.6 121.9-58 167.3-105.2 67-69.5 106.6-154.7 116.9-251 1.9-18.5 1.7-66.7-.5-85-11-92.3-47.8-172.6-109.6-239.5-27.6-29.8-66-60.2-101.7-80.4-45.7-25.7-98.9-43.3-152.2-50.1-16.9-2.2-19.2-2.4-19.1-1.3z"/>
  <path
    d="M488 95.1c-29.5 18.2-71.1 49.9-68.9 52.5 1.4 1.7 21.7 11.9 28.7 14.4l6.2 2.3v7.3c0 4.1-.4 7.4-.9 7.4-4.2 0-30.5-12-41-18.7l-5.3-3.4-2.5 2.3c-5.6 5.1-23.9 25.6-30.5 34.2l-7 9 2.9 2.4c4.8 3.9 19.6 12.8 29.9 18 16.2 8.1 29.9 13 50.2 18.2l4.2 1.1v14.6l-8.2-1.9c-24.4-5.6-56.7-19.5-77.2-33.3-7.5-5-10.1-6.3-10.8-5.3-.5.7-3.8 7.1-7.3 14.3-6.6 13.6-10.6 24.8-12.7 36-1 5.7-1 6.8.3 7.6 21 13.1 43.7 24.1 65 31.4 14 4.8 36.6 10.7 45.7 12l5.2.7v14.9l-3.7-.6c-36.8-6.3-75.5-20.3-108-39l-6.3-3.6v5c0 2.8.9 9.5 1.9 14.9 3.4 17.3 9.6 32.9 20.3 50.8l6.1 10.3 11.1 3.9c13.4 4.8 25.6 8.3 39.6 11.6 11.6 2.8 32.9 6.6 36.6 6.6 2.3 0 2.4.3 2.4 7.5v7.6l-3.2-.5c-28.5-4.7-47.8-8.8-62.5-13.4-3.5-1.1-6.3-1.6-6.3-1.1 0 1.5 28 29.7 38.5 38.8 20.8 18 44.1 35.1 66.6 49.1l13 8.1 4.7-2.7c10.3-5.9 34.4-22.2 46.7-31.4 24-18 45.1-36.9 60.7-54.2 6-6.7 6.9-8 4.8-7.6-1.4.3-10.4 2.6-20 5.1-9.6 2.5-23.3 5.5-30.5 6.6-7.1 1.2-14.5 2.4-16.2 2.7l-3.3.5v-7.6c0-7.2.1-7.5 2.4-7.5 10.3 0 52.6-9.9 73.6-17.2l12.5-4.3 3.7-5.5c9.6-14.3 18.5-34.4 22.3-50.4 2.2-9.4 4.2-23.6 3.4-23.6-.3 0-9.2 4.4-19.9 9.8-28 14.2-51 22.2-80.5 28.3-7.7 1.6-14.8 2.9-15.7 2.9-1.6 0-1.8-1-1.8-7 0-4.8.4-7.2 1.3-7.4.6-.2 6.6-1.3 13.2-2.6 30.5-5.8 65.3-19.1 93.9-36 5.5-3.3 8.6-5.7 8.6-6.8-.1-3.4-3.9-18.9-6.5-26.2-2.6-7.3-12.8-28.7-14.5-30.3-.4-.5-4.1 1.3-8.2 4.1-24.2 16.3-52.6 28.2-85 35.6l-2.8.6v-14.7l9.3-2.3c14.3-3.5 28-8.5 42.2-15.4 12.3-5.9 28.4-15.2 33.6-19.4l2.3-2-4.4-5.8c-8.5-11.5-26.3-31.4-33-37l-2.9-2.5-9.3 5.4c-10.1 5.9-20.4 10.7-31 14.3l-6.8 2.3v-15.4l7.8-2.8c8.6-3.1 27.4-12.7 27.8-14.2.3-1.1-15.6-14.3-32.1-26.7C534.8 109 502.7 88 500.3 88c-.5 0-6.1 3.2-12.3 7.1zm24.5 52.8c4.8 2.2 10.7 8 13.1 13 1.1 2.1 2 6.7 2.2 11.4.4 6.8.1 8.4-2.2 13.2-8 16.3-29.3 20.4-43 8.4-6-5.3-8.7-10.7-9.4-18.5-1.7-21.2 19.8-36.3 39.3-27.5zm.1 80.9c10.6 5.4 15.4 13.2 15.4 24.9 0 9-2.3 14.5-8.6 20.3-6 5.5-10.5 7.3-18.4 7.3-16.8.1-29.1-13.1-27.8-29.7.3-3.4 1.5-8 2.6-10.3 2.8-5.4 10.4-12 16.1-13.8 6.1-2 15.5-1.4 20.7 1.3zm.9 75.7c9.6 4.7 14.5 13 14.5 24.7 0 16.1-11.2 27.2-27.5 27.2-24.9 0-36.7-29.3-19-47.1 8.8-8.7 20.5-10.5 32-4.8zm-.9 72.6c5.4 2.5 10.8 8 13.3 13.5 3.1 6.6 2.9 17.4-.5 24.2-8 16-29.2 20-42.8 8.1-6-5.3-8.7-10.7-9.4-18.5-1.7-21.3 20.2-36.5 39.4-27.3zM491 516.3c-11.2 7-28.7 18.7-38 25.6-10.9 8-32 25.2-32 26.1 0 .7 25.7 4 30.8 4 2.1 0 2.2.4 2.2 7.5v7.5l-4.2-.5c-11.7-1.4-36.7-4.6-40.1-5.1-3.7-.7-3.9-.5-12.3 8.2-13 13.6-29.4 33.3-29.4 35.4 0 1.7 43.4 9 68.9 11.6l17.1 1.8v14.4l-3.7-.4c-2.1-.2-10.3-1.1-18.3-1.9-17.9-1.9-42.2-5.7-59.8-9.4l-13.4-2.8-2.6 4.1c-6.4 10.2-17.2 37.1-17.2 43.1 0 2.6-1.1 2.3 24.5 7.5 19.8 4 43.8 7.6 66.7 10 10.9 1.1 20.7 2 21.8 2 1.8 0 2 .6 2 7v7h-3.8c-6.9 0-35.3-3-53.2-5.6-15.1-2.2-51.6-9-58.9-11l-2.4-.7.6 13.9c.4 10.2 1.2 16.5 3 23.6 2.9 11.1 6.6 21.6 7.8 22.4 3.3 2 53 9.6 77.4 11.8 9.4.9 19.8 1.9 23.3 2.2l6.2.6V790h-3.6c-12 0-62-5.8-84.1-9.8-7.1-1.3-10.3-1.5-10.3-.7 0 1.7 10.9 18 18.9 28.2 8.6 11.1 24.7 28.2 27.7 29.3 1.1.5 11.7 1.6 23.5 2.5 11.8.9 22.9 1.9 24.7 2.1l3.2.5v6.9c0 8.2 1.9 7.6-17.8 5.9-7.1-.6-13.8-.9-14.8-.7-4.3.8 41.9 35.5 69.5 52.2l9.4 5.7 12.7-7.6c22.7-13.9 69.8-49 68-50.9-.3-.3-4.8-.1-10 .4-5.2.4-12.8 1.1-16.7 1.4l-7.3.6v-14.7l10.8-.6c5.9-.4 17.8-1.4 26.5-2.4l15.8-1.6 8.1-8.6c13.2-13.9 26.8-31.6 34.7-45 3.6-6 3.7-5.9-8.5-3.6-18.8 3.6-50.3 7.6-79.6 10l-7.8.7v-7c0-7.8.4-8.2 7.1-8.2 20.2 0 97.9-11.9 100.4-15.4 1.8-2.4 6.1-15.9 8-25.1 1.7-8.4 3.2-29.3 2.2-31.8-.5-1.4-1.3-1.4-6.4-.2-24.1 5.8-62.7 12.1-91.2 15-22.2 2.2-20.1 2.8-20.1-5.4v-6.9l3.8-.6c2-.3 7.3-.8 11.7-1.1 21.8-1.7 65.1-8.6 88.5-14.1l11.1-2.6-.6-3.1c-1.5-7.3-6-18.9-11.5-30.2-3.2-6.6-6.2-12.6-6.7-13.2-.7-1-4-.7-15.4 1.6-16.3 3.4-43 7.4-59.4 9-6 .6-13.4 1.4-16.2 1.7l-5.3.5v-14.7l14.4-1.2c22.8-2 68.9-9.3 71-11.3 1.6-1.5-16.5-23.7-30.6-37.6l-7.3-7.2-4.8.9c-4.6.9-38.8 5-41.5 5-1 0-1.2-1.8-1-7.2l.3-7.3 11.8-1.1c15.9-1.6 20.7-2.4 20.7-3.3 0-1.3-29-24.1-43.7-34.4-12.7-8.8-32.2-21.1-35.3-22.1-.8-.3-5.3 1.8-10 4.7zm21 40.8c10.3 4.6 16 13.7 16 25.5 0 29.1-38.5 38-52.3 12-3.1-5.8-3.1-18.3 0-24.2 5.7-10.6 13.3-15.4 24.7-15.4 5 0 8.5.7 11.6 2.1zm.5 65.8c5.3 2.3 10.6 7.6 13.4 13.3 1.6 3.3 2.1 6.3 2.1 11.9 0 12.1-5.2 20.4-15.8 25.1-22.3 9.9-45.5-11.3-37.6-34.4 5.1-15.1 22.9-22.5 37.9-15.9zm.1 65.9c10.3 5.2 15.4 13.3 15.4 24 0 9.8-1.6 13.9-8 20.3-4.1 4.1-6.7 5.9-10.5 6.9-20.1 5.6-38.1-8.8-36.2-29 .9-10.1 7.7-19.2 17.3-23 6.3-2.6 16.1-2.2 22 .8zm-.1 71.1c9.6 4.3 15.5 13.9 15.5 25.4 0 11.6-4.8 19.5-15.1 24.7-17.7 9.1-39.9-4.7-39.9-24.9 0-20.1 20.8-33.5 39.5-25.2zm.1 65.9c10.3 5.2 15.4 13.3 15.4 24 0 8.9-1.6 13.6-6.7 19.2-5.7 6.4-12 9.3-20.4 9.3-16.5.2-29-13.2-27.7-29.7 1.3-15.3 14-26.3 29.3-25.3 3.4.3 7.8 1.3 10.1 2.5z"/>
</svg>
